<?xml version="1.0"?>
<svg xmlns="http://www.w3.org/2000/svg" id="Capa_1" enable-background="new 0 0 512 512" height="512px" viewBox="0 0 512 512" width="512px"><g><g><path d="m486.42 39.328h-460.84c-14.104 0-25.58 11.475-25.58 25.58v288.72c0 14.11 11.476 25.59 25.58 25.59h179.508c4.713 20.52-1.946 38.352-19.467 51.933h-11.1c-10.553 0-19.785 5.87-22.975 14.607l-4.515 12.371c-1.211 3.318-.725 7.027 1.3 9.922 2.025 2.894 5.343 4.622 8.875 4.622h197.588c3.533 0 6.852-1.729 8.877-4.624 2.024-2.896 2.509-6.604 1.298-9.92l-4.515-12.37c-3.188-8.737-12.42-14.608-22.975-14.608h-11.1c-17.52-13.581-24.18-31.413-19.467-51.933h75.521c4.143 0 7.5-3.357 7.5-7.5s-3.357-7.5-7.5-7.5c-37.712 0-322.513 0-356.854 0-5.834 0-10.58-4.751-10.58-10.59v-55.51c59.525.001 393.41 0 482 0v55.51c0 5.839-4.746 10.59-10.58 10.59h-73.999c-4.143 0-7.5 3.357-7.5 7.5s3.357 7.5 7.5 7.5h73.999c14.104 0 25.58-11.479 25.58-25.59v-288.72c.001-14.105-11.475-25.58-25.579-25.58zm-140.058 411.572 2.472 6.772h-185.668l2.472-6.772c.861-2.36 4.189-4.75 8.883-4.75h162.959c4.694 0 8.022 2.389 8.882 4.75zm-54.78-71.683c-3.583 19.407.991 37.207 13.228 51.933h-97.62c12.237-14.726 16.812-32.525 13.228-51.933zm192.418-96.099v-208.293c0-4.142-3.357-7.5-7.5-7.5h-441c-4.143 0-7.5 3.358-7.5 7.5v136.58c0 4.142 3.357 7.5 7.5 7.5s7.5-3.358 7.5-7.5v-129.08h426v200.793h-426v-41.726c0-4.142-3.357-7.5-7.5-7.5s-7.5 3.358-7.5 7.5v41.726h-13v-218.21c0-5.834 4.746-10.58 10.58-10.58h460.84c5.834 0 10.58 4.746 10.58 10.58v218.21z" data-original="#000000" class="active-path" data-old_color="#000000" fill="#FFFFFF"/><path d="m246.653 323.667c-4.143 0-7.5 3.357-7.5 7.5s3.357 7.5 7.5 7.5h18.694c4.143 0 7.5-3.357 7.5-7.5s-3.357-7.5-7.5-7.5z" data-original="#000000" class="active-path" data-old_color="#000000" fill="#FFFFFF"/><path d="m70.872 141.889c2.705 3.123 7.441 3.477 10.58.759 3.131-2.711 3.471-7.448.76-10.58l-6.676-7.708 6.676-7.708c2.711-3.131 2.371-7.868-.76-10.58-3.132-2.712-7.868-2.372-10.58.759l-10.928 12.619c-2.44 2.818-2.44 7.002 0 9.82z" data-original="#000000" class="active-path" data-old_color="#000000" fill="#FFFFFF"/><path d="m136.425 142.648c3.145 2.723 7.879 2.358 10.58-.759l10.928-12.618c2.44-2.818 2.44-7.002 0-9.82l-10.928-12.618c-2.713-3.131-7.449-3.472-10.58-.759-3.131 2.711-3.471 7.448-.76 10.58l6.676 7.708-6.676 7.708c-2.711 3.13-2.371 7.867.76 10.578z" data-original="#000000" class="active-path" data-old_color="#000000" fill="#FFFFFF"/><path d="m93.757 150.775c3.577 2.057 8.167.84 10.24-2.765l22.888-39.825c2.063-3.591.825-8.176-2.766-10.24-3.59-2.064-8.176-.827-10.24 2.765l-22.888 39.825c-2.063 3.592-.825 8.176 2.766 10.24z" data-original="#000000" class="active-path" data-old_color="#000000" fill="#FFFFFF"/><path d="m71.078 194.263h26.416c4.143 0 7.5-3.358 7.5-7.5s-3.357-7.5-7.5-7.5h-26.416c-4.143 0-7.5 3.358-7.5 7.5s3.358 7.5 7.5 7.5z" data-original="#000000" class="active-path" data-old_color="#000000" fill="#FFFFFF"/><path d="m71.078 226.772h100.257c4.143 0 7.5-3.358 7.5-7.5s-3.357-7.5-7.5-7.5h-100.257c-4.143 0-7.5 3.358-7.5 7.5s3.358 7.5 7.5 7.5z" data-original="#000000" class="active-path" data-old_color="#000000" fill="#FFFFFF"/><path d="m198.372 219.272c0 4.142 3.357 7.5 7.5 7.5h25.576c4.143 0 7.5-3.358 7.5-7.5s-3.357-7.5-7.5-7.5h-25.576c-4.143 0-7.5 3.358-7.5 7.5z" data-original="#000000" class="active-path" data-old_color="#000000" fill="#FFFFFF"/><path d="m265.348 226.772h25.576c4.143 0 7.5-3.358 7.5-7.5s-3.357-7.5-7.5-7.5h-25.576c-4.143 0-7.5 3.358-7.5 7.5s3.357 7.5 7.5 7.5z" data-original="#000000" class="active-path" data-old_color="#000000" fill="#FFFFFF"/><path d="m324.822 226.772h104.801c4.143 0 7.5-3.358 7.5-7.5s-3.357-7.5-7.5-7.5h-104.801c-4.143 0-7.5 3.358-7.5 7.5s3.358 7.5 7.5 7.5z" data-original="#000000" class="active-path" data-old_color="#000000" fill="#FFFFFF"/><path d="m97.494 244.283h-26.416c-4.143 0-7.5 3.358-7.5 7.5s3.357 7.5 7.5 7.5h26.416c4.143 0 7.5-3.358 7.5-7.5s-3.357-7.5-7.5-7.5z" data-original="#000000" class="active-path" data-old_color="#000000" fill="#FFFFFF"/><path d="m147.623 244.283h-26.417c-4.143 0-7.5 3.358-7.5 7.5s3.357 7.5 7.5 7.5h26.417c4.143 0 7.5-3.358 7.5-7.5s-3.357-7.5-7.5-7.5z" data-original="#000000" class="active-path" data-old_color="#000000" fill="#FFFFFF"/><path d="m163.835 251.783c0 4.142 3.357 7.5 7.5 7.5h70.303c4.143 0 7.5-3.358 7.5-7.5s-3.357-7.5-7.5-7.5h-70.303c-4.143 0-7.5 3.358-7.5 7.5z" data-original="#000000" class="active-path" data-old_color="#000000" fill="#FFFFFF"/><path d="m399.056 244.283h-127.465c-4.143 0-7.5 3.358-7.5 7.5s3.357 7.5 7.5 7.5h127.465c4.143 0 7.5-3.358 7.5-7.5s-3.358-7.5-7.5-7.5z" data-original="#000000" class="active-path" data-old_color="#000000" fill="#FFFFFF"/><path d="m120.627 186.763c0 4.142 3.357 7.5 7.5 7.5h86.416c4.143 0 7.5-3.358 7.5-7.5s-3.357-7.5-7.5-7.5h-86.416c-4.143 0-7.5 3.358-7.5 7.5z" data-original="#000000" class="active-path" data-old_color="#000000" fill="#FFFFFF"/></g></g> </svg>
